# xmcd
#
# Track frame offsets:
#	150
#	6924
#	26324
#	42408
#	60186
#	75760
#	93446
#	111524
#	133152
#	145787
#	174329
#	192593
#	209111
#
# Disc length: 2880 seconds
#
# Revision: 16
# Processed by: cddbd v1.5.2PL0 Copyright (c) Steve Scherf et al.
# Submitted via: Jack! The Knife 20 Magnifico
#
DISCID=ad0b3e0d
DTITLE=Grave Digger - The Reaper
DYEAR=1993
DGENRE=Metal
TTITLE0=Tribute To Death
TTITLE1=The Reaper
TTITLE2=Ride On
TTITLE3=Shadows Of A Moonless Night
TTITLE4=Play Your Game (And Kill)
TTITLE5=Wedding Day
TTITLE6=Spy Of Mas'On
TTITLE7=Under My Flag
TTITLE8=Fight The Fight
TTITLE9=Legion Of The Lost (Part II)
TTITLE10=And The Devil Plays Piano
TTITLE11=Ruler Mr. H.
TTITLE12=The Madness Continues
EXTD=Boltendahl, Lulis, Sielck
EXTT0=Piet Sielck
EXTT1=Boltendahl, Lulis, Michael, Göttlich
EXTT2=Boltendahl, Lulis, Michael, Göttlich
EXTT3=Boltendahl, Lulis, Michael, Göttlich
EXTT4=Boltendahl, Lulis, Michael, Göttlich
EXTT5=Boltendahl, Lulis, Michael, Göttlich
EXTT6=Boltendahl, Lulis, Michael, Göttlich
EXTT7=Boltendahl, Lulis, Michael, Göttlich
EXTT8=Boltendahl, Lulis, Michael, Göttlich
EXTT9=Boltendahl, Lulis, Michael, Göttlich
EXTT10=Boltendahl, Lulis, Michael, Göttlich
EXTT11=Boltendahl, Lulis, Michael, Göttlich
EXTT12=Boltendahl, Lulis, Michael, Göttlich
PLAYORDER=
